<!-- icon666.com - MILLIONS vector ICONS FREE --><svg id="Layer_2" viewBox="0 0 64 64" xmlns="http://www.w3.org/2000/svg" data-name="Layer 2"><path d="m49.83 16.37a12.6 12.6 0 0 0 -17.83.1 12.54 12.54 0 1 0 -17.83 17.63l16.77 16.76a1.49 1.49 0 0 0 2.12 0l16.77-16.76a12.6 12.6 0 0 0 0-17.73zm-2.12 15.63-15.71 15.68-14.55-14.55-1.16-1.13a9.57 9.57 0 0 1 0-13.49c4.37-4.3 10.86-3.42 14.66 1.17a1.73 1.73 0 0 0 1.06.43 1.76 1.76 0 0 0 1.06-.44c8.93-10.57 23.7 2.09 14.64 12.33z" fill="#000000" style="fill: rgb(234, 46, 46);"></path></svg>