<!-- icon666.com - MILLIONS vector ICONS FREE --><svg id="Layer_1" enable-background="new 0 0 479.985 479.985" viewBox="0 0 479.985 479.985" xmlns="http://www.w3.org/2000/svg"><path d="m401.322 122.591-94.29-13.7-42.17-85.44c-10.17-20.61-39.57-20.61-49.74 0l-42.17 85.44-94.29 13.7c-22.74 3.31-31.83 31.26-15.37 47.31l68.23 66.5-16.11 93.91c-3.88 22.66 19.9 39.94 40.25 29.24l23.48-12.34c-3.22 24.24-9.25 47.55-17.65 69.52-11.21 29.33 19.23 54.64 46.14 39.04 10.95 21.69 53.84 21.56 64.72 0 26.91 15.6 57.35-9.71 46.14-39.04-8.4-21.97-14.43-45.28-17.65-69.53l23.48 12.35c20.35 10.7 44.13-6.58 40.25-29.24l-16.11-93.91 68.23-66.5c16.46-16.05 7.38-44-15.37-47.31z" fill="#fff0a6" style="fill: rgb(211, 189, 80);"></path><path d="m264.462 22.681c-3.79 2.55-7.05 6.14-9.34 10.77l-42.17 85.44-94.29 13.7c-22.74 3.31-31.83 31.26-15.37 47.31l68.23 66.5-16.11 93.91c-1.13 6.59.08 12.73 2.88 17.86l-2.63 1.38c-20.35 10.7-44.13-6.58-40.25-29.24l16.11-93.91-68.23-66.5c-16.46-16.05-7.37-44 15.37-47.31l94.29-13.7 42.17-85.44c10.04-20.35 38.83-20.61 49.34-.77z" fill="#fff8d6" style="fill: rgb(208, 188, 88);"></path><path d="m272.352 455.771c-10.88 21.56-53.77 21.69-64.72 0 4.12-18.57 7.45-38.7 9.98-59.21 15.65-3.93 30.12-11.44 42.37-21.8 2.67 27.9 6.79 55.88 12.37 81.01z" fill="#ffe773"></path><path d="m318.492 416.731c11.21 29.33-19.23 54.64-46.14 39.04-9.01-40.6-14.23-88.66-15.63-131.76l44.12 23.19c3.22 24.25 9.25 47.56 17.65 69.53z" fill="#ff8c95"></path><path d="m272.352 455.771c-5.58-25.13-9.7-53.11-12.37-81.01 11.14-9.42 20.43-21.19 27.09-34.8l13.77 7.24c3.22 24.25 9.25 47.56 17.65 69.53 11.21 29.33-19.23 54.64-46.14 39.04z" fill="#ff6d7a" style="fill: rgb(174, 91, 98);"></path><path d="m179.142 347.211 44.12-23.2c-1.4 43.1-6.62 91.16-15.63 131.76-26.91 15.6-57.35-9.71-46.14-39.04 8.4-21.97 14.43-45.28 17.65-69.52z" fill="#9cbcff"></path><path d="m217.612 396.561c-2.53 20.51-5.86 40.64-9.98 59.21-26.91 15.6-57.35-9.71-46.14-39.04 2.47-6.47 4.74-13.05 6.79-19.74 16.91 3.89 33.71 3.52 49.33-.43z" fill="#80aaff"></path><g><path d="m402.468 114.674-90.124-13.096-40.306-81.667c-13.106-26.554-50.992-26.543-64.092 0l-40.305 81.667-90.125 13.096c-29.305 4.259-41.002 40.295-19.806 60.955l65.215 63.569-15.395 89.761c-5.005 29.182 25.65 51.449 51.851 37.671l9.333-4.907c-3.319 17.776-8.237 35.258-14.695 52.15-13.876 36.297 24.16 68.218 57.624 48.818 1.937-1.123 3.313-3.004 3.799-5.189 5.465-24.633 9.836-53.42 12.642-83.249.414-4.399-2.816-8.3-7.216-8.714-4.396-.414-8.301 2.817-8.714 7.216-2.606 27.706-6.583 54.446-11.535 77.618-19.387 8.49-39.781-9.53-31.654-30.787 8.284-21.669 14.171-44.259 17.526-67.209l53.5-28.127 8.896 4.677c1.675 43.449 7.078 88.665 14.97 125.385-5.51 7.49-17.8 10.479-27.995 9.478-4.395-.435-8.313 2.781-8.745 7.178s2.782 8.313 7.179 8.745c14.608 1.437 31.278-2.788 40.826-13.822 32.239 11.941 63.588-18.672 50.841-52.018-4.711-12.323-8.643-25.076-11.686-37.903-1.021-4.298-5.333-6.958-9.631-5.937-4.299 1.02-6.957 5.332-5.938 9.631 3.206 13.51 7.348 26.942 12.309 39.921 8.108 21.214-12.216 39.292-31.655 30.783-7.911-37.029-13.231-82.915-14.65-126.624-.094-2.877-1.726-5.482-4.273-6.821l-16.726-8.793c-2.33-1.226-5.115-1.226-7.445 0l-84.333 44.336c-14.493 7.621-31.41-4.635-28.636-20.805l16.105-93.906c.445-2.595-.415-5.243-2.301-7.081l-68.227-66.504c-11.729-11.433-5.296-31.306 10.938-33.664l94.287-13.701c2.605-.379 4.858-2.015 6.023-4.376l42.166-85.438c7.247-14.685 28.137-14.712 35.396 0l42.167 85.438c1.165 2.361 3.418 3.998 6.023 4.376l94.286 13.701c16.209 2.355 22.685 22.214 10.938 33.664l-68.227 66.504c-1.886 1.838-2.746 4.486-2.301 7.081l16.105 93.906c2.769 16.143-14.116 28.438-28.636 20.805l-29.762-15.646c-3.909-2.056-8.747-.552-10.804 3.358-2.056 3.911-.553 8.748 3.358 10.804l29.762 15.646c26.21 13.781 56.854-8.5 51.851-37.672l-15.395-89.761 65.215-63.569c21.213-20.666 9.493-56.695-19.798-60.952z" fill="#000000"></path></g></svg>